<?xml version="1.0" encoding="UTF-8"?>
<svg width="296px" height="296px" viewBox="0 0 296 296" version="1.1" xmlns="http://www.w3.org/2000/svg" xmlns:xlink="http://www.w3.org/1999/xlink">
    <!-- Generator: Sketch 52.6 (67491) - http://www.bohemiancoding.com/sketch -->
    <title>podcast-album</title>
    <desc>Created with Sketch.</desc>
    <g id="CLEANED" stroke="none" stroke-width="1" fill="none" fill-rule="evenodd">
        <g id="Podcast---Home" transform="translate(-252.000000, -164.000000)">
            <g id="Stacked-Group" transform="translate(0.000000, 164.000000)">
                <g id="Feature-Episode">
                    <g id="Header" transform="translate(252.000000, 0.000000)">
                        <g id="Cover">
                            <g id="Podcast/Default-Cover">
                                <g fill="#000000" id="Background">
                                    <rect fill-rule="nonzero" x="0" y="0" width="296" height="296"></rect>
                                </g>
                                <g id="Stacked-Group-2" transform="translate(24.000000, 200.000000)" font-family="SequelSans-SemiBoldHead, Sequel Sans" font-weight="500">
                                    <text id="Title" opacity="0.5" font-size="16" line-spacing="24"></text>
                                    <text id="Name" font-size="36" line-spacing="48"></text>
                                </g>
                                <g id="betterproduct-logo-white" transform="translate(62.315789, 100.614035)">
                                    <rect id="Rectangle" fill="#E65159" x="132.13815" y="74.821039" width="38.5071667" height="6.73667894"></rect>
                                    <rect id="Rectangle" fill="#3940E8" x="25.0707019" y="81.6222809" width="34.1408691" height="6.73667894"></rect>
                                    <rect id="Rectangle" fill="#F2CA58" x="94.7894261" y="81.6222809" width="37.3487236" height="6.73667894"></rect>
                                    <rect id="Rectangle" fill="#68BA88" x="59.2097264" y="88.3017755" width="35.5796997" height="6.73667894"></rect>
                                    <path d="M13.9252983,0 C19.7378052,0 23.0212906,3.12484505 23.0212906,7.81211263 C23.0212906,10.4721047 21.7300323,12.4071475 19.3670296,13.4456881 L19.3670296,13.6080177 C22.1875067,14.7148105 23.9786664,16.9283961 23.9786664,20.3926576 C23.9786664,25.6038071 20.5623659,28.8614673 14.482384,28.8614673 L0,28.8614673 L0,0 L13.9252983,0 Z M12.7668551,11.9367605 C15.5190799,11.9367605 16.9486873,10.5864733 16.9486873,8.31570336 C16.9486873,6.04493343 15.5190799,4.69649085 12.7668551,4.69649085 L6.06337998,4.69649085 L6.06337998,11.9367605 L12.7668551,11.9367605 Z M13.2667566,24.0561419 C16.2569418,24.0561419 17.8046071,22.5804181 17.8046071,20.1307167 C17.8046071,17.6810152 16.2569418,16.2052915 13.2667566,16.2052915 L6.06337998,16.2052915 L6.06337998,24.0561419 L13.2667566,24.0561419 Z" id="Shape" fill="#FFFFFF" fill-rule="nonzero"></path>
                                    <path d="M46.0960761,22.5047873 C45.2530689,25.5337103 42.4067668,29.3576795 35.6350394,29.3576795 C29.0588454,29.3576795 24.9157509,24.9987604 24.9157509,18.1975186 C24.9157509,11.3317138 28.9389428,6.9580375 35.6147482,6.9580375 C42.3237573,6.9580375 46.8173361,11.3575389 46.2805416,19.3670296 L30.6821415,19.3670296 C30.7614617,22.9087666 32.6596114,25.3492448 35.6350394,25.3492448 C38.73037,25.3492448 39.9183276,23.4326486 40.3296856,22.0288664 L46.0960761,22.5047873 Z M35.6018356,10.8982199 C32.5987377,10.8982199 30.9514611,13.0822911 30.7411705,15.721992 L40.5086171,15.721992 C40.2983264,13.0822911 38.6492051,10.8982199 35.6018356,10.8982199 Z" id="Shape" fill="#FFFFFF" fill-rule="nonzero"></path>
                                    <path d="M57.2783729,24.4656552 C57.8520605,24.4656552 58.5696312,24.4656552 59.0861345,24.43983 L59.0861345,28.8670013 C58.5419614,28.9223409 56.7674035,28.9481661 55.3746893,28.9481661 C51.0176149,28.9481661 49.1249992,28.0018583 49.1249992,23.783133 L49.1249992,11.2689955 L45.7216112,11.2689955 L45.7216112,7.46162824 L49.1249992,7.46162824 L49.1249992,1.49601496 L54.7862444,1.49601496 L54.7862444,7.46162824 L59.2484641,7.46162824 L59.2484641,11.2689955 L54.7862444,11.2689955 L54.7862444,22.3535256 C54.7862444,24.2627432 55.5241063,24.4656552 57.2839069,24.4656552 L57.2783729,24.4656552 Z" id="Path" fill="#FFFFFF"></path>
                                    <path d="M70.5783332,24.4656552 C71.1501762,24.4656552 71.8695915,24.4656552 72.3842502,24.43983 L72.3842502,28.8670013 C71.840077,28.9223409 70.0655192,28.9481661 68.6728049,28.9481661 C64.3157306,28.9481661 62.4231148,28.0018583 62.4231148,23.783133 L62.4231148,11.2689955 L59.0289502,11.2689955 L59.0289502,7.46162824 L62.4231148,7.46162824 L62.4231148,1.49601496 L68.0788261,1.49601496 L68.0788261,7.46162824 L72.5410458,7.46162824 L72.5410458,11.2689955 L68.0788261,11.2689955 L68.0788261,22.3535256 C68.0788261,24.2627432 68.816688,24.4656552 70.5764886,24.4656552 L70.5783332,24.4656552 Z" id="Path" fill="#FFFFFF"></path>
                                    <path d="M93.5110804,22.5047873 C92.6680732,25.5337103 89.821771,29.3576795 83.0500436,29.3576795 C76.472005,29.3576795 72.3307552,24.9987604 72.3307552,18.1975186 C72.3307552,11.3317138 76.3539471,6.9580375 83.0297524,6.9580375 C89.7387615,6.9580375 94.2323404,11.3575389 93.6937012,19.3670296 L78.0971458,19.3670296 C78.1764659,22.9087666 80.0746156,25.3492448 83.0500436,25.3492448 C86.1453742,25.3492448 87.3333318,23.4326486 87.7446898,22.0288664 L93.5110804,22.5047873 Z M83.0242185,10.8982199 C80.0211206,10.8982199 78.373844,13.0822911 78.1635533,15.721992 L87.9217767,15.721992 C87.7133307,13.0822911 86.0642094,10.8982199 83.0242185,10.8982199 Z" id="Shape" fill="#FFFFFF" fill-rule="nonzero"></path>
                                    <path d="M100.88601,10.7395796 L101.048339,10.7395796 C102.184647,8.52599399 104.337359,6.96172681 107.482495,6.96172681 C107.988171,6.95878117 108.492348,7.01700307 108.984044,7.13512436 L108.984044,12.4292833 C108.244582,12.330438 107.499838,12.2762299 106.753856,12.2669537 C103.533089,12.2669537 101.131349,13.6836485 101.131349,18.0573248 L101.131349,28.8614673 L95.4774823,28.8614673 L95.4774823,7.46347289 L100.88601,7.46347289 L100.88601,10.7395796 Z" id="Path" fill="#FFFFFF"></path>
                                    <path d="M38.5901762,35.1572738 C45.2549136,35.1572738 49.0143199,38.7285253 49.0143199,44.4875373 C49.0143199,50.2465492 45.2549136,53.815956 38.5901762,53.815956 L31.2705864,53.815956 L31.2705864,64.0187411 L25.2072064,64.0187411 L25.2072064,35.1572738 L38.5901762,35.1572738 Z M37.586684,49.0069412 C41.0232757,49.0069412 42.8421053,47.3209269 42.8421053,44.4875373 C42.8421053,41.6541476 41.0232757,39.9681333 37.586684,39.9681333 L31.2705864,39.9681333 L31.2705864,49.0069412 L37.586684,49.0069412 Z" id="Shape" fill="#FFFFFF" fill-rule="nonzero"></path>
                                    <path d="M56.8153646,45.8968534 L56.9776942,45.8968534 C58.1140015,43.6832678 60.2648688,42.1190006 63.4118498,42.1190006 C63.9175341,42.1159102 64.4217283,42.1741341 64.9133987,42.2923982 L64.9133987,47.5920911 C64.1739371,47.4932458 63.4291923,47.4390377 62.6832111,47.4297615 C59.4624441,47.4297615 57.0607036,48.8464563 57.0607036,53.2201326 L57.0607036,64.0242751 L51.401303,64.0242751 L51.401303,42.6115234 L56.8153646,42.6115234 L56.8153646,45.8968534 Z" id="Path" fill="#FFFFFF"></path>
                                    <path d="M87.3443998,53.3326565 C87.3443998,60.1855487 83.1754801,64.5186426 76.4258886,64.5186426 C69.6375593,64.5186426 65.483397,60.1855487 65.483397,53.3326565 C65.483397,46.4797643 69.6375593,42.1190006 76.4258886,42.1190006 C83.1754801,42.1190006 87.3443998,46.4668517 87.3443998,53.3326565 Z M81.5798538,53.3326565 C81.5798538,48.735777 79.5765588,46.369085 76.4258886,46.369085 C73.2752184,46.369085 71.2479429,48.735777 71.2479429,53.3326565 C71.2479429,57.929536 73.2512379,60.2685582 76.4258886,60.2685582 C79.6005393,60.2685582 81.5798538,57.9221574 81.5798538,53.3326565 Z" id="Shape" fill="#FFFFFF" fill-rule="nonzero"></path>
                                    <path d="M104.741338,45.1147198 L104.903668,45.1147198 L104.903668,34.7532944 L110.557534,34.7532944 L110.557534,64.0187411 L105.145318,64.0187411 L105.145318,61.2259339 L104.982988,61.2259339 C103.69173,63.4782573 101.227271,64.5186426 98.4233958,64.5186426 C92.9779752,64.5186426 89.0064336,60.1855487 89.0064336,53.3326565 C89.0064336,46.4797643 92.9779752,42.1190006 98.3237845,42.1190006 C101.334261,42.1190006 103.538623,43.2774438 104.741338,45.1147198 Z M105.21357,53.3326565 C105.21357,48.8206311 103.15678,46.4539392 100.00611,46.4539392 C96.8167016,46.4539392 94.7728242,48.8206311 94.7728242,53.3326565 C94.7728242,57.8446819 96.8167016,60.1984613 100.00611,60.1984613 C103.15678,60.1984613 105.21357,57.8299247 105.21357,53.3326565 Z" id="Shape" fill="#FFFFFF" fill-rule="nonzero"></path>
                                    <path d="M128.138938,61.172439 C126.681661,63.2458308 124.438561,64.5186426 121.381968,64.5186426 C117.286835,64.5186426 113.852088,62.1408827 113.852088,56.7102193 L113.852088,42.6115234 L119.505954,42.6115234 L119.505954,55.2510974 C119.505954,58.6969124 120.935562,59.9420543 123.512544,59.9420543 C125.868168,59.9420543 128.057773,58.0771084 128.057773,54.2623625 L128.057773,42.6115234 L133.71164,42.6115234 L133.71164,64.0095179 L128.301268,64.0095179 L128.301268,61.172439 L128.138938,61.172439 Z" id="Path" fill="#FFFFFF"></path>
                                    <path d="M146.803154,60.2833154 C149.863437,60.2833154 151.031103,58.025458 151.490422,56.129153 L157.227298,56.7895394 C156.334485,60.349723 153.521387,64.5186426 146.803154,64.5186426 C140.188223,64.5186426 136.104157,60.1855487 136.104157,53.3326565 C136.104157,46.4797643 140.191912,42.1208453 146.803154,42.1208453 C153.497406,42.1208453 156.109437,46.3082114 156.897105,48.8778154 L151.396345,50.1008215 C150.924113,48.5623795 149.771204,46.369085 146.803154,46.369085 C143.800057,46.369085 141.865014,48.7376217 141.865014,53.3326565 C141.865014,57.9276913 143.800057,60.2833154 146.803154,60.2833154 Z" id="Path" fill="#FFFFFF"></path>
                                    <path d="M169.271049,59.622929 C169.842892,59.622929 170.562307,59.622929 171.07881,59.5971038 L171.07881,64.0242751 C170.525414,64.0796148 168.758235,64.1054399 167.36552,64.1054399 C163.008446,64.1054399 161.117675,63.1591321 161.117675,58.9404068 L161.117675,46.4262693 L157.717976,46.4262693 L157.717976,42.6115234 L161.121364,42.6115234 L161.121364,36.6532888 L166.775231,36.6532888 L166.775231,42.6115234 L171.239295,42.6115234 L171.239295,46.4188907 L166.775231,46.4188907 L166.775231,57.5034208 C166.775231,59.4126384 167.513093,59.6155504 169.272893,59.6155504 L169.271049,59.622929 Z" id="Path" fill="#FFFFFF"></path>
                                </g>
                            </g>
                        </g>
                    </g>
                </g>
            </g>
        </g>
    </g>
</svg>